<svg aria-hidden="true" style="position:absolute;width:0;height:0;overflow:hidden" xmlns="http://www.w3.org/2000/svg"><defs><symbol id="icon-instagram" viewBox="0 0 32 32"><path d="M31.968 9.408c-.074-1.701-.349-2.869-.742-3.882a7.839 7.839 0 0 0-1.85-2.837l-.001-.001A7.906 7.906 0 0 0 26.597.861l-.054-.018C25.524.449 24.362.176 22.661.101 20.949.019 20.405 0 16.059 0c-4.344 0-4.888.019-6.595.094-1.699.074-2.869.349-3.88.742a7.847 7.847 0 0 0-2.839 1.85l-.001.001A7.9 7.9 0 0 0 .919 5.465l-.018.054C.506 6.538.232 7.7.157 9.401c-.082 1.712-.101 2.256-.101 6.602 0 4.344.019 4.888.094 6.595.075 1.701.35 2.869.744 3.882a7.915 7.915 0 0 0 1.849 2.837l.001.001c.8.813 1.77 1.443 2.832 1.843 1.019.395 2.182.67 3.882.744 1.707.075 2.251.094 6.595.094 4.346 0 4.89-.019 6.595-.094 1.701-.074 2.869-.349 3.882-.742a8.237 8.237 0 0 0 4.664-4.628l.019-.055c.394-1.019.669-2.182.744-3.882.075-1.707.093-2.251.093-6.595s-.006-4.888-.08-6.595zm-2.88 13.066c-.07 1.563-.333 2.406-.55 2.97a5.341 5.341 0 0 1-3.004 3.024l-.036.012c-.56.219-1.411.482-2.968.55-1.688.075-2.194.094-6.464.094-4.269 0-4.782-.019-6.464-.094-1.563-.069-2.406-.331-2.97-.55a4.953 4.953 0 0 1-1.836-1.192l-.001-.001a4.978 4.978 0 0 1-1.184-1.803L3.6 25.45c-.218-.563-.48-1.413-.549-2.97-.075-1.688-.094-2.195-.094-6.464 0-4.27.019-4.784.094-6.464.069-1.563.331-2.406.549-2.97a4.897 4.897 0 0 1 1.198-1.837l.002-.002a4.972 4.972 0 0 1 1.806-1.182l.034-.011c.56-.219 1.411-.48 2.968-.55 1.688-.074 2.195-.093 6.464-.093 4.275 0 4.782.019 6.464.093 1.563.069 2.406.331 2.97.55a4.91 4.91 0 0 1 1.837 1.194c.531.52.938 1.144 1.195 1.84.218.56.48 1.411.549 2.968.075 1.688.094 2.194.094 6.464 0 4.269-.019 4.768-.094 6.458z"/><path d="M16.059 7.782a8.223 8.223 0 0 0-8.219 8.221v.002a8.222 8.222 0 1 0 16.444 0 8.222 8.222 0 0 0-8.222-8.222h-.002zm0 13.552a5.333 5.333 0 0 1 .001-10.666h.001a5.334 5.334 0 1 1 0 10.668zM26.525 7.458a1.92 1.92 0 0 1-3.84 0 1.92 1.92 0 0 1 3.84 0z"/></symbol>  <symbol id="icon-tviter" viewBox="0 0 32 32"><path d="M32 6.078c-1.1.493-2.376.857-3.713 1.028l-.068.007a6.556 6.556 0 0 0 2.873-3.579l.013-.046a12.89 12.89 0 0 1-4.076 1.573l-.084.014A6.558 6.558 0 0 0 15.6 9.557v.004c0 .52.043 1.021.152 1.496-5.454-.266-10.28-2.88-13.522-6.861a6.524 6.524 0 0 0-.902 3.313v.001a6.57 6.57 0 0 0 2.914 5.451 6.453 6.453 0 0 1-2.994-.823l.033.017v.072a6.592 6.592 0 0 0 5.213 6.44l.043.008a6.403 6.403 0 0 1-1.662.215h-.061.003c-.419 0-.843-.024-1.242-.112.85 2.598 3.261 4.509 6.13 4.57a13.096 13.096 0 0 1-8.123 2.8H1.57h.001c-.538 0-1.053-.026-1.57-.091 2.827 1.846 6.287 2.944 10.004 2.944h.063-.003c12.072 0 18.672-10 18.672-18.669 0-.288-.01-.57-.024-.848a13.19 13.19 0 0 0 3.258-3.356l.03-.047z"/></symbol><symbol id="icon-facebook" viewBox="0 0 32 32"><path d="M21.328 5.312h2.923V.224A36.483 36.483 0 0 0 20.143 0h-.156.008c-4.213 0-7.099 2.65-7.099 7.52V12H8.25v5.688h4.646V32h5.699V17.69h4.459l.707-5.688h-5.168V8.08c0-1.643.443-2.768 2.734-2.768z"/></symbol><symbol id="icon-linkedin" viewBox="0 0 32 32"><path d="M31.992 32H32V20.262c0-5.741-1.237-10.163-7.947-10.163-3.227 0-5.392 1.77-6.277 3.45h-.093v-2.914h-6.365v21.363h6.627V21.42c0-2.786.528-5.48 3.978-5.48 3.398 0 3.448 3.179 3.448 5.658V32h6.621zM.528 10.635h6.635V32H.528V10.635zM3.843 0A3.843 3.843 0 0 0 0 3.843c0 2.12 1.722 3.878 3.843 3.878 2.12 0 3.842-1.757 3.842-3.878S5.965.002 3.844 0z"/></symbol><symbol id="icon-envelope" viewBox="0 0 43 32"><path d="M38.67.005H4.001c-2.206 0-4 1.794-4 4v24.002c0 2.206 1.794 4 4 4H38.67c2.206 0 4-1.794 4-4V4.005c0-2.206-1.794-4-4-4zm0 2.667c.181 0 .353.038.511.103L21.336 18.242 3.491 2.775c.151-.065.327-.103.511-.103h34.669zm0 26.668H4.001a1.334 1.334 0 0 1-1.333-1.333V5.592l17.794 15.422a1.331 1.331 0 0 0 1.75-.001l-.002.001L40.004 5.592v22.414c0 .736-.598 1.333-1.333 1.333z"/></symbol><symbol id="icon-smartphone" viewBox="0 0 20 32"><path d="M17.003 0H2.998A3.004 3.004 0 0 0-.003 3.001V29.01a3.004 3.004 0 0 0 3.001 3.001h14.005a3.004 3.004 0 0 0 3.001-3.001V3.001A3.004 3.004 0 0 0 17.003 0zM2.998 2.001h14.005a1 1 0 0 1 1 1v21.007H1.997V3.001a1 1 0 0 1 1-1zm14.005 28.01H2.998a1 1 0 0 1-1-1V26.01h16.006v3.001a1 1 0 0 1-1 1z"/><path d="M4.705 27.488c.391.365.391.956 0 1.321s-1.024.365-1.415 0-.391-.956 0-1.321 1.024-.365 1.415 0z"/></symbol><symbol id="icon-antenna" viewBox="0 0 32 32"><path fill="#212121" style="fill:var(--color3, #212121)" d="m30.784 22.106-8.446-8.508.937-4.617c.242.094.499.144.758.146h.032a2.16 2.16 0 1 0-2.03-1.421l-.005-.015-4.962.605L8.974.16A.53.53 0 0 0 8.597 0a.533.533 0 0 0-.373.155L6.71 1.66a.535.535 0 0 0 0 .754l.814.826c-1.143 2.063-1.816 4.524-1.816 7.142 0 4.107 1.656 7.827 4.337 10.529l-.001-.001c.041.04.09.073.143.097l.003.001c-.034.18-.051.364-.052.547v6.189H3.736a2.671 2.671 0 0 0-2.668 2.668v1.068c0 .295.239.533.533.533h24.542a.533.533 0 0 0 .533-.533v-1.067a2.671 2.671 0 0 0-2.668-2.668h-6.402v-2.743a14.65 14.65 0 0 0 3.048.32h.002a14.798 14.798 0 0 0 7.12-1.822l-.077.039.818.823a.53.53 0 0 0 .377.16.533.533 0 0 0 .373-.155l1.514-1.505a.535.535 0 0 0 0-.754zM23.288 6.235a1.066 1.066 0 1 1 .752 1.822h-.003a1.067 1.067 0 0 1-.747-1.823h-.002zm-1.256 3.506-.598 2.947-1.175-1.182 1.775-1.764zm-.605-.902-1.921 1.91-1.486-1.494 3.406-.415zm2.586 19.971c.884 0 1.601.717 1.601 1.601v.533H2.139v-.533c0-.884.717-1.601 1.601-1.601h20.274zm-7.47-2.134v1.067h-5.335v-1.067h5.335zm-5.335-1.067v-4.054c0-1.294 1.196-2.348 2.668-2.348s2.668 1.053 2.668 2.348v4.054h-5.335zm6.402-1.696v-2.358c0-1.883-1.676-3.414-3.734-3.414h-.058a3.8 3.8 0 0 0-3.215 1.771l-.009.016a13.82 13.82 0 0 1-3.813-9.553c0-2.315.567-4.497 1.569-6.416l-.036.077 18.609 18.715c-1.823.947-3.981 1.503-6.268 1.503-1.079 0-2.13-.124-3.138-.358l.093.018zm11.293-.685L7.839 2.039l.755-.752 7.938 7.983c.004 0 .006.007.01.01l13.12 13.196-.757.752z"/><path fill="#2196f3" style="fill:var(--color4, #2196f3)" d="M13.881 20.274h-.007a1.601 1.601 0 0 0-.003 3.202h.007a1.601 1.601 0 0 0 .003-3.202zm.373 1.979a.534.534 0 0 1-.752-.757.532.532 0 1 1 .746.756h.005z"/></symbol><symbol id="icon-astronaut" viewBox="0 0 32 32"><path fill="#2196f3" style="fill:var(--color4, #2196f3)" d="M31.985 4.526a.538.538 0 0 0-.427-.363h-.003l-1.911-.278-.855-1.732c-.179-.365-.777-.365-.956 0l-.855 1.732-1.911.278a.537.537 0 0 0-.297.91l1.384 1.348-.326 1.904a.536.536 0 0 0 .525.624.524.524 0 0 0 .252-.064l-.003.001 1.71-.899 1.71.899a.536.536 0 0 0 .774-.566v.003l-.326-1.904 1.384-1.348a.535.535 0 0 0 .134-.551l.001.004zm-2.464 1.327a.533.533 0 0 0-.153.475v-.003l.191 1.114-1-.526a.525.525 0 0 0-.501.001l.003-.001-1.001.526.191-1.114a.53.53 0 0 0-.153-.472l-.81-.789 1.119-.163a.533.533 0 0 0 .401-.289l.001-.003.5-1.013.5 1.013a.54.54 0 0 0 .399.292h.003l1.119.163-.809.789zm-3.378 14.676h-1.067v1.067h1.067v-1.067zm0 2.135h-1.067v1.067h1.067v-1.067zm1.067-1.067h-1.067v1.067h1.067v-1.067zm-2.134 0h-1.067v1.067h1.067v-1.067zm-2.668 4.801h-1.067v1.067h1.067v-1.067zm0 2.134h-1.067v1.067h1.067v-1.067zm1.067-1.066h-1.067v1.067h1.067v-1.067zm-2.134 0h-1.067v1.067h1.067v-1.067zm-5.335-3.201h-1.067v1.067h1.067v-1.067zm0 2.133h-1.067v1.067h1.067v-1.067zm1.067-1.067h-1.067v1.067h1.067v-1.067zm-2.135 0h-1.067v1.067h1.067v-1.067zM5.869 6.124H4.802v1.067h1.067V6.124zm0 2.134H4.802v1.067h1.067V8.258z"/><path fill="#2196f3" style="fill:var(--color4, #2196f3)" d="M6.935 7.192H5.868v1.067h1.067V7.192zm-2.133 0H3.735v1.067h1.067V7.192z"/><path fill="#212121" style="fill:var(--color3, #212121)" d="M24.724 14.164a1.778 1.778 0 0 0-1.179-.704l-.009-.001a1.769 1.769 0 0 0-1.344.355l.004-.003-1.252.96-1.899 1.418-1.358-.541c2.422-1.086 4.115-3.509 4.115-6.322 0-3.824-3.124-6.935-6.963-6.935S7.876 5.502 7.876 9.326v.001c0 1.398.418 2.699 1.136 3.783l-.016-.025-2.77-.024c-.009 0-.015.004-.023.005a.523.523 0 0 0-.159.032l.004-.001-.038.013c-.006.003-.013.003-.019.006l-3.235 1.598-1.894.911a.429.429 0 0 0-.064.036l.001-.001a1.78 1.78 0 0 0-.594 2.305l-.005-.01c.22.429.595.745 1.056.889a1.768 1.768 0 0 0 1.388-.133l-.009.005 1.389-.738 2.265-1.169 1.357-.008-6.785 6.752c-.316.315-.49.732-.49 1.178s.174.863.49 1.179c.325.323.752.485 1.179.485s.854-.162 1.18-.485l1.314-1.309 1.742-1.3.901.897-3.104 3.089c-.316.315-.49.732-.49 1.178s.174.863.49 1.179c.325.323.753.485 1.18.485s.855-.162 1.18-.485l3.484-3.47 1.01-1-.004-.004c.006-.006.015-.009.022-.015l5.168-5.66 3.472.494a.513.513 0 0 0 .265-.034l-.003.001c.018-.006.033-.015.05-.023.019-.01.039-.015.058-.027l3.214-2.134c.012-.008.018-.021.029-.029.013-.01.029-.014.041-.026l1.271-1.191a1.78 1.78 0 0 0 .212-2.363zM2.131 17.776a.706.706 0 0 1-.563.05l.005.001a.719.719 0 0 1-.215-1.259l.002-.001 1.314-.632.449 1.312-.992.528zm3.499-1.828-1.549.8-.439-1.283 2.028-1.001-.04 1.485zm15.104-6.623a5.77 5.77 0 0 1-.614 2.593l.015-.033-4.183-1.9A1.87 1.87 0 0 0 15.17 8.6l-.006-.004 1.465-4.862c2.379.756 4.106 2.975 4.106 5.59zm-11.793 0c0-3.236 2.645-5.869 5.896-5.869.253 0 .5.021.745.052L14.15 8.264c-.019-.001-.037-.006-.057-.006-1.033 0-1.874.837-1.874 1.868s.84 1.868 1.874 1.868a1.87 1.87 0 0 0 1.619-.945l3.863 1.756a5.895 5.895 0 0 1-4.739 2.391c-3.251 0-5.896-2.633-5.896-5.869zm5.958.801c0 .441-.362.8-.806.8s-.806-.359-.806-.8c0-.441.362-.8.806-.8s.806.359.806.8zM2.466 25.155a.606.606 0 0 1-.855.001.592.592 0 0 1 0-.844l.962-.958.851.848-.959.955zm3.215 3.735a.606.606 0 0 1-.855.001.592.592 0 0 1 0-.844l.963-.959.852.848-.96.955zm3.482-3.47-.002.001-1.766 1.761-.852-.848 1.766-1.757c.04-.04.065-.088.09-.135.007-.014.02-.026.026-.04.017-.041.019-.085.026-.129.003-.025.014-.047.014-.073 0-.036-.013-.07-.02-.106-.006-.032-.006-.065-.019-.095a.586.586 0 0 0-.091-.139c-.01-.012-.014-.027-.025-.038h-.001l-.001-.002L6.7 22.219c-.017-.017-.039-.024-.058-.038a.563.563 0 0 0-.084-.057l-.003-.001a.444.444 0 0 0-.089-.032l-.004-.001a.502.502 0 0 0-.101-.02h-.023a.468.468 0 0 0-.076.006h.003a.59.59 0 0 0-.108.021l.004-.001a.502.502 0 0 0-.096.046l.002-.001c-.02.011-.042.015-.061.029l-1.774 1.324-.901-.897 2.4-2.387 4.363 4.291-.928.919zm6.822-7.019c-.015-.002-.03.004-.045.003h-.02a.55.55 0 0 0-.282.077l.003-.001a.481.481 0 0 0-.083.061c-.013.011-.028.017-.04.029l-4.7 5.148-4.33-4.258 2.834-2.819a.535.535 0 0 0-.378-.911h-.001v-.001l-2.22.013.028-1.608 3.105.027a6.931 6.931 0 0 0 4.979 2.102h.004c.437 0 .864-.045 1.279-.123.04.032.079.065.13.085l2.411.96.331 1.645-3.004-.427zm4.042.178-.313-1.559 1.447-1.08.947 1.257-2.081 1.381zm3.755-2.832-.838.785-.931-1.236.831-.637a.734.734 0 0 1 .547-.143h-.004a.72.72 0 0 1 .479.282l.001.002a.71.71 0 0 1-.085.947z"/><path fill="#212121" style="fill:var(--color3, #212121)" d="m13.607 18.551-2.144-2.134a.534.534 0 0 0-.754 0l-2.143 2.134a.537.537 0 0 0 0 .756l2.143 2.134a.534.534 0 0 0 .754 0l2.144-2.134a.535.535 0 0 0 0-.756zm-2.52 1.759L9.7 18.929l1.387-1.381 1.387 1.381-1.387 1.381zM17.17 5.073l-.258 1.036c.071.018 1.739.452 1.739 2.15h1.067c0-2.018-1.667-2.966-2.548-3.186zm2.548 4.252h-1.067v1.067h1.067V9.325z"/></symbol><symbol id="icon-clock" viewBox="0 0 32 32"><path fill="#212121" style="fill:var(--color3, #212121)" d="M31.308 15.306C31.306 6.851 24.451-.002 15.995 0S.687 6.857.689 15.313c.001 6.79 4.423 12.548 10.545 14.551l.108.031a.657.657 0 0 0 .532-.067l-.003.002a.64.64 0 0 0 .282-.352l.001-.005 3.866-12.254a1.912 1.912 0 0 0-.012-3.826c-.302 0-.587.07-.84.194l.011-.005-5.108-5.109a.637.637 0 1 0-.902.902l5.105 5.111a1.873 1.873 0 0 0 .532 2.307l.004.003-3.684 11.677C3.845 25.791.118 17.715 2.8 10.435S13.558-.573 20.838 2.109s11.008 10.758 8.326 18.038c-1.345 3.582-4.005 6.408-7.377 7.94l-.088.036-.398-1.875a.639.639 0 0 0-1.049-.343l.001-.001-3.838 3.427a.637.637 0 0 0 .227 1.083l.005.001 4.901 1.564a.638.638 0 0 0 .818-.745l.001.004-.391-1.84c5.53-2.375 9.332-7.774 9.332-14.062v-.034.002zm-15.31-.637a.639.639 0 1 1 0 1.278.639.639 0 1 1 0-1.278zm2.101 14.869 2.185-1.949.603 2.841-2.788-.892z"/><path fill="#2196f3" style="fill:var(--color4, #2196f3)" d="M15.359 3.186v1.275a.638.638 0 0 0 1.276 0V3.186a.638.638 0 0 0-1.276 0zM3.877 14.669a.638.638 0 0 0 0 1.276h1.275a.638.638 0 0 0 0-1.276H3.877zm24.241 1.276a.638.638 0 0 0 0-1.276h-1.275a.638.638 0 0 0 0 1.276h1.275z"/></symbol><symbol id="icon-diagram" viewBox="0 0 32 32"><path fill="#2196f3" style="fill:var(--color4, #2196f3)" d="M14.931 14.97h1.066v4.8h-1.066v-4.799zm4.266 2.133h1.066v2.666h-1.066v-2.666zm-8.532 1.6h1.066v1.066h-1.066v-1.066zm-3.199-.534h1.066v1.6H7.466v-1.6z"/><path fill="#212121" style="fill:var(--color3, #212121)" d="M1.6 28.301h25.596a1.601 1.601 0 0 0 1.6-1.599v-2.133a1.601 1.601 0 0 0-1.599-1.6h-.533V9.671l3.029-2.869a1.61 1.61 0 1 0-.742-.754l-.004-.01-2.282 2.164v-1.23a1.601 1.601 0 0 0-1.599-1.6H3.736a1.601 1.601 0 0 0-1.6 1.599v15.998h-.533a1.601 1.601 0 0 0-1.6 1.599v2.133a1.601 1.601 0 0 0 1.599 1.6zM30.395 4.839a.534.534 0 1 1 0 1.068.534.534 0 1 1 0-1.068zM3.199 6.971c0-.294.239-.533.533-.533h21.33c.294 0 .533.239.533.533v2.24l-1.066 1.013V8.037a.533.533 0 0 0-.533-.533H4.799a.533.533 0 0 0-.533.533v13.331c0 .294.239.533.533.533h19.197a.533.533 0 0 0 .533-.533v-9.677l1.066-1.01v12.288H3.199V6.971zm4.8 6.933h-.002a1.6 1.6 0 1 0 1.109 2.75h-.001l1.854.93a.528.528 0 0 0 .636-.123v-.001l3.94-4.433 3.873 2.902a.527.527 0 0 0 .686-.039l3.366-3.189v8.134H5.33V8.571h18.13v2.661l-3.772 3.573-3.905-2.928a.534.534 0 0 0-.718.071v.001l-3.994 4.495-1.494-.746c.011-.064.018-.129.02-.193a1.601 1.601 0 0 0-1.599-1.6zm.533 1.6a.534.534 0 1 1-1.068 0 .534.534 0 1 1 1.068 0zm3.199 8.532h5.333v.533a.533.533 0 0 1-.533.533h-4.265a.533.533 0 0 1-.533-.533v-.533zm-10.665.533c0-.294.239-.533.533-.533h9.065v.533a1.601 1.601 0 0 0 1.599 1.6h4.266a1.601 1.601 0 0 0 1.6-1.599v-.533h9.065c.294 0 .533.239.533.533v2.133a.533.533 0 0 1-.533.533H1.598a.533.533 0 0 1-.533-.533V24.57z"/></symbol><symbol id="icon-ya-s-co" viewBox="0 0 28 32"><path d="m4.085 0 4.766 4.514H0v21.903h23.149v-8.374l4.766 4.507V0H4.085zm18.86 17.518L9.403 4.711h13.542v12.8zm-4.208 5.706H3.663V8.484h1.069v13.74h14.005v1.001zM7.224 29.345l-.558 1.144-.558-1.144h-.456l.817 1.532v.885h.415v-.885l.817-1.532h-.477zm.701 2.417.191-.558h.94l.204.558h.436l-.919-2.417h-.374l-.919 2.417h.443zm.661-1.907.354 1.008h-.701l.347-1.008zm2.219.953a.544.544 0 0 0-.088.298v.002c0 .204.068.374.211.497.143.129.34.191.579.191s.443-.068.613-.191l.136.157h.477l-.361-.415c.136-.191.204-.436.204-.735h-.34a.952.952 0 0 1-.109.443l-.463-.545.163-.129a.802.802 0 0 0 .252-.252.53.53 0 0 0-.095-.66.612.612 0 0 0-.409-.157h-.02.001l-.039-.001a.644.644 0 0 0-.432.165l.001-.001a.589.589 0 0 0-.171.416l.001.034v-.002c0 .082.02.163.054.245s.102.184.197.3c-.141.094-.26.207-.358.337l-.003.004zm1.089.532a.608.608 0 0 1-.381.136l-.02.001a.394.394 0 0 1-.266-.103.362.362 0 0 1-.109-.259v-.014.001c0-.136.068-.245.204-.347l.048-.041.524.626zm-.428-1.076c-.116-.136-.17-.252-.17-.347 0-.082.02-.15.068-.204a.24.24 0 0 1 .174-.075h.011-.001c.075 0 .136.02.184.068a.196.196 0 0 1 .068.157.309.309 0 0 1-.102.238l-.048.041-.184.123zm3.935 1.321c.17-.15.266-.347.286-.613h-.415c-.02.177-.075.3-.157.374-.088.075-.204.109-.374.109h-.021a.47.47 0 0 1-.387-.203l-.001-.002c-.095-.136-.143-.34-.143-.599v-.211c0-.259.048-.456.15-.586a.484.484 0 0 1 .422-.204c.157 0 .272.041.354.116s.136.204.157.374h.415a.906.906 0 0 0-.279-.612.929.929 0 0 0-.601-.219l-.049.001h.002c-.204 0-.374.048-.524.136a.927.927 0 0 0-.347.409c-.082.17-.123.374-.123.599v.232c0 .218.041.415.123.586s.191.3.34.388a.93.93 0 0 0 .511.136c.272 0 .497-.068.66-.211zm2.471-.341c.082-.184.123-.388.123-.626v-.136c0-.238-.041-.443-.123-.613a.927.927 0 0 0-.85-.559l-.037.001h.002a.92.92 0 0 0-.871.558 1.507 1.507 0 0 0-.129.626v.136c0 .232.048.436.129.613s.204.313.354.409a.999.999 0 0 0 .524.143c.204 0 .374-.048.531-.136a.943.943 0 0 0 .347-.415zm-.449-1.368c.102.136.157.347.157.613v.129c0 .272-.054.477-.157.62a.49.49 0 0 1-.403.212l-.027-.001h.001-.019a.502.502 0 0 1-.409-.21l-.001-.002a1.048 1.048 0 0 1-.159-.556l.002-.066v.003-.136c0-.266.054-.463.157-.613a.495.495 0 0 1 .43-.204h-.001c.184 0 .327.068.429.204z"/></symbol><symbol id="icon-company-t-h" viewBox="0 0 25 32"><path d="M10.529 1.803h-.08l-.388-.012h-.343c-.26 0-.519.007-.776.02l.036-.002c-2.24.123-4.431.689-6.468 1.649l-.265.129v13.625l.622-.209c1.995-.718 4.297-1.147 6.695-1.175h.013v1.791l-.652.018h-.049a19.837 19.837 0 0 0-8.503 2.421l.103-.052V2.523A17.872 17.872 0 0 1 5.141.612l.127-.027A17.924 17.924 0 0 1 9.774 0h.27c1.123.004 2.21.149 3.247.42l-.09-.02v1.766a13.221 13.221 0 0 0-2.132-.33l-.046-.003h-.043c-.154-.012-.308-.031-.449-.031zm3.102 1.803a19.382 19.382 0 0 0 6.085-.596l-.135.03a19.547 19.547 0 0 0 4.667-1.829l-.101.051v17.163a17.947 17.947 0 0 1-4.667 1.923l-.127.028a18.63 18.63 0 0 1-4.511.578h-.105c-1.18 0-2.325-.148-3.419-.427l.095.021V3.274c.639.156 1.396.274 2.17.33l.046.003zm8.738.136-.622.209c-2.067.744-4.451 1.174-6.936 1.174-.389 0-.776-.011-1.16-.031l.054.002-.505-.031v14.012l.431.037a16.602 16.602 0 0 0 5.407-.499l-.115.026a17.04 17.04 0 0 0 3.277-1.195l-.101.045.271-.123V3.743zM1.686 25.975a.922.922 0 0 0-.66-.278l-.037.001h.002c-.135 0-.271.025-.4.074a.926.926 0 0 0-.585.907v-.002 2.338c0 .16.025.326.092.474a.997.997 0 0 0 .234.314c.092.08.203.135.32.166s.234.049.351.049a.984.984 0 0 0 .966-.984v-.258h-.615v.203a.393.393 0 0 1-.031.209.377.377 0 0 1-.086.135.42.42 0 0 1-.252.086.307.307 0 0 1-.289-.122l-.001-.001a.55.55 0 0 1-.086-.297v-.018.001-2.178c0-.123.025-.24.08-.345a.307.307 0 0 1 .297-.142H.985h.011c.106 0 .2.05.26.129l.001.001a.492.492 0 0 1 .105.303v.213h.603v-.248c0-.281-.105-.537-.278-.732l.001.001zm3.625-.024a1.082 1.082 0 0 0-1.066-.188l.008-.002a.966.966 0 0 0-.32.185 1.024 1.024 0 0 0-.24.332 1.032 1.032 0 0 0-.086.455v2.234c-.006.16.025.314.086.462a.784.784 0 0 0 .24.308c.092.092.197.16.32.203a1.055 1.055 0 0 0 .733-.003l-.007.002a.955.955 0 0 0 .648-.904l-.002-.066v.003-2.24l.001-.043a1.01 1.01 0 0 0-.32-.738l-.001-.001zm-.283 3.015a.39.39 0 0 1-.123.326.447.447 0 0 1-.573-.001l.001.001a.399.399 0 0 1-.125-.29l.002-.038v.002-2.234a.39.39 0 0 1 .123-.326.447.447 0 0 1 .573.001l-.001-.001a.399.399 0 0 1 .125.29l-.002.038v-.002 2.234zm5.046 1.003v-4.246h-.591l-.769 2.246h-.012l-.775-2.246h-.578v4.24h.603v-2.585h.012l.591 1.828h.308l.597-1.822h.006v2.578h.609zm3.44-3.938a.776.776 0 0 0-.345-.234 1.313 1.313 0 0 0-.421-.068h-.915v4.24h.603v-1.662h.308c.191.012.375-.025.548-.111.244-.153.417-.4.467-.689l.001-.006a3.03 3.03 0 0 0-.029-1.103l.004.02a.908.908 0 0 0-.222-.394zm-.308 1.292a.532.532 0 0 1-.062.215.325.325 0 0 1-.154.148.605.605 0 0 1-.269.062h-.291v-1.446h.308c.098 0 .185.012.277.055a.314.314 0 0 1 .142.154c.03.069.048.149.049.233v.579zm3.163-1.594h-.492l-.923 4.24h.603l.178-.911h.818l.185.911h.597l-.954-4.24zm-.554 2.751.302-1.538h.006l.295 1.538h-.603zm4.462-.197h-.012l-.911-2.554h-.578v4.24h.603v-2.548h.012l.917 2.548h.566v-4.246h-.603v2.554zm3.692-2.554-.492 1.686h-.006l-.492-1.686h-.634l.831 2.449v1.785h.603v-1.785l.831-2.449h-.64zM0 31.163h.289v.818h.203v-.818h.289v-.166h-.782v.166zm2.449-.166-.382.985h.209l.08-.222h.394l.08.222h.215l-.388-.985h-.209zm-.031.597.129-.369.135.369h-.265zm2.444.024h.234v.123a.375.375 0 0 1-.234.086l-.017.001a.245.245 0 0 1-.192-.092.406.406 0 0 1-.074-.236l.001-.023v.001c0-.215.092-.326.283-.326l.02-.001a.21.21 0 0 1 .202.153v.001l.197-.037c-.043-.191-.185-.289-.418-.289h-.019a.493.493 0 0 0-.327.124.48.48 0 0 0-.141.383v-.002c0 .135.037.271.123.369a.479.479 0 0 0 .347.149l.03-.001h-.001a.608.608 0 0 0 .418-.16v-.388h-.431v.166zm2.473-.621h-.197v.985h.689v-.166h-.492v-.818zm2.093 0h-.203v.985h.203v-.985zm2.043.658-.406-.658h-.191v.985h.185v-.64l.394.64h.197v-.985h-.185v.658zm1.846-.104h.492v-.166h-.492v-.222h.523v-.166h-.726v.985h.751v-.166h-.554v-.265zm4.474-.166h-.388v-.388h-.197v.985h.197v-.431h.388v.431h.197v-.985h-.197v.388zm1.858.166h.492v-.166h-.492v-.222h.529v-.166h-.726v.985h.745v-.166h-.548v-.265zm2.517 0c.172-.031.258-.123.258-.277a.23.23 0 0 0-.091-.215h-.001a.55.55 0 0 0-.256-.063l-.035.001h.002-.418v.985h.197v-.412h.037c.043 0 .086.006.123.025.031.018.062.043.074.074l.215.308h.234l-.123-.185a.638.638 0 0 0-.215-.246zm-.197-.136h-.148v-.246h.154a.569.569 0 0 1 .203.018.122.122 0 0 1-.005.202.558.558 0 0 1-.168.026l-.037-.001h.002zm2.099.136h.492v-.166h-.492v-.222h.529v-.166h-.726v.985h.745v-.166h-.548v-.265z"/></symbol><symbol id="icon-company" viewBox="0 0 34 32"><path d="m5.638 31.314.038.008.03.015.168.16c-.13.13-.29.229-.465.305a1.822 1.822 0 0 1-.663.107c-.213 0-.427-.03-.625-.099a1.278 1.278 0 0 1-.766-.715l-.003-.008a1.459 1.459 0 0 1 .004-1.145l-.004.01a1.39 1.39 0 0 1 .328-.442 1.38 1.38 0 0 1 .495-.282 1.92 1.92 0 0 1 .644-.109c.214 0 .42.034.612.098l-.014-.004c.16.061.312.152.442.259l-.137.168a.152.152 0 0 1-.037.03h-.001a.094.094 0 0 1-.053.015H5.63a.136.136 0 0 1-.061-.023l-.076-.046-.099-.053a1.16 1.16 0 0 0-.525-.123l-.057.001h.003c-.152 0-.312.023-.457.076a.988.988 0 0 0-.592.55l-.002.006c-.057.13-.091.282-.091.442 0 .152.03.312.084.457a.951.951 0 0 0 .572.547l.007.002c.137.046.282.076.427.076l.251-.015c.212-.023.4-.108.55-.237l-.001.001a.128.128 0 0 1 .076-.03zm4.8-.8c0 .198-.03.381-.107.564a1.42 1.42 0 0 1-.312.434c-.145.13-.305.229-.495.29a1.998 1.998 0 0 1-1.265 0 1.451 1.451 0 0 1-.489-.291l.001.001a1.276 1.276 0 0 1-.309-.434l-.003-.008a1.432 1.432 0 0 1 0-1.12c.076-.168.175-.312.312-.442.145-.122.305-.213.488-.282a1.998 1.998 0 0 1 1.278.004l-.014-.004c.183.069.35.168.495.29.258.238.42.577.42.955l-.001.046v-.002zm-.434 0a1.31 1.31 0 0 0-.076-.45.934.934 0 0 0-.565-.547l-.007-.002a1.47 1.47 0 0 0-.924.003l.01-.003a1.004 1.004 0 0 0-.359.214l.001-.001a.905.905 0 0 0-.226.329l-.002.006c-.099.297-.099.61 0 .907a.92.92 0 0 0 .573.547l.006.002c.297.091.625.091.914 0a1.12 1.12 0 0 0 .358-.213.954.954 0 0 0 .221-.335c.053-.152.076-.305.076-.457zm3.71.473.046.107.046-.107.053-.099 1.067-1.676c.015-.023.038-.046.053-.046a.267.267 0 0 1 .091-.015h.312v2.728h-.373V29.7l-1.067 1.699a.153.153 0 0 1-.06.061h-.001a.19.19 0 0 1-.09.023h-.065a.176.176 0 0 1-.089-.023h.001a.153.153 0 0 1-.061-.06v-.001l-1.097-1.714v2.194h-.366v-2.728h.32c.03 0 .053 0 .084.015a.119.119 0 0 1 .061.046l1.082 1.676.053.099zm3.993-.13v1.021h-.411V29.15h.922c.175 0 .35.023.518.061.137.03.259.091.366.168a.782.782 0 0 1 .213.267.805.805 0 0 1 .069.35v.008a.761.761 0 0 1-.303.608l-.002.001a.93.93 0 0 1-.366.183 1.698 1.698 0 0 1-.486.069h-.018.001l-.503-.008zm0-.297h.503c.114 0 .221-.008.328-.038a.705.705 0 0 0 .23-.123l-.001.001a.524.524 0 0 0 .191-.405v-.007l.001-.029a.456.456 0 0 0-.04-.188l.001.003a.544.544 0 0 0-.151-.19l-.001-.001a.91.91 0 0 0-.556-.145h-.503v1.12zm5.584 1.318h-.339a.148.148 0 0 1-.081-.024h.001a.18.18 0 0 1-.053-.06v-.001l-.282-.663H21.12l-.297.663a.152.152 0 0 1-.14.092l-.013-.001h.001-.32l1.25-2.735h.434l1.257 2.728zm-2.057-1.013h1.173l-.495-1.105a1.565 1.565 0 0 1-.088-.246l-.003-.013-.046.145-.046.114-.495 1.105zm3.856-1.699.061.046 1.821 2.057v-2.118h.366v2.728h-.206c-.03 0-.061 0-.084-.015a.226.226 0 0 1-.068-.053l-1.813-2.057v2.126h-.373v-2.728h.229c.015 0 .046 0 .069.015zm5.31 1.63v1.082h-.411v-1.082l-1.15-1.646h.384c.03 0 .058.009.081.024h-.001l.053.061.716 1.067c.045.067.088.145.125.226l.004.01.053-.114.076-.122.701-1.067a.31.31 0 0 1 .053-.061.135.135 0 0 1 .086-.031h.386l-1.158 1.653zm-16.891-6.217.549.046c2.781-1.067 5.093-2.834 6.791-5.089l.028-.039a12.187 12.187 0 0 0 2.423-7.554v.011l-3.093-2.682c.632 2.842.335 5.775-.846 8.48-1.296 2.832-3.301 5.15-5.791 6.789l-.06.037z"/><path d="m12.404 24.457.084.008c2.819-1.752 4.975-4.198 6.171-7.032.682-1.541 1.08-3.339 1.08-5.229 0-1.282-.183-2.522-.524-3.695l.023.093-4.404-3.817c1.372 2.346 2.182 5.166 2.182 8.175 0 .69-.043 1.371-.125 2.038l.008-.08c-.502 3.72-2.121 6.992-4.504 9.541l.009-.01zm14.926-9.348c-.856 3.109-2.689 5.706-5.143 7.508l-.038.027a16.124 16.124 0 0 1-2.453 1.531c2.126-.541 4.084-1.501 5.714-2.804a12.757 12.757 0 0 0 3.67-4.645l.033-.079-1.783-1.539z"/><path d="m26.629 14.674-2.545-2.21a12.722 12.722 0 0 1-2.41 7.161l.026-.037a15.625 15.625 0 0 1-6.121 5.042l-.097.04h.015c.571 0 1.143-.03 1.707-.084 2.417-.853 4.477-2.196 6.144-3.919l.004-.004a12.89 12.89 0 0 0 3.258-5.9l.018-.088zM12.777 3.17 9.745.534c-2.706.891-4.978 2.482-6.677 4.561l-.02.026a11.363 11.363 0 0 0-2.53 7.065v.005a11.5 11.5 0 0 0 3.077 7.695l-.007-.007a14.765 14.765 0 0 0 7.759 4.41l.097.017a16.574 16.574 0 0 0 4.644-10.322l.003-.055a16.096 16.096 0 0 0-3.342-10.796l.028.037zm20.853 11.1c-.008-3.314-1.524-6.476-4.221-8.823A15.5 15.5 0 0 0 19.37 1.782h-.116.006c-1.76 0-3.505.282-5.15.838l18.56 16.114c.604-1.312.958-2.847.96-4.464v-.001z"/></symbol><symbol id="icon-foster-peters" viewBox="0 0 65 32"><path d="M10.016 9.983h-.002c-1.827 0-3.308 1.316-3.308 2.94v.002c0 1.624 1.481 2.94 3.308 2.94h.002c1.827 0 3.308-1.317 3.308-2.94v-.002c0-1.624-1.481-2.941-3.308-2.941zm24.418-.939c-.005-2.255-1.016-4.418-2.81-6.012S27.398.539 24.861.534c-2.539.004-4.972.902-6.767 2.497s-2.806 3.757-2.811 6.013v12.437s19.15-1.896 19.152-12.434v-.002zM0 25.562c.005 1.57.709 3.073 1.957 4.183s2.94 1.735 4.706 1.739c1.765-.005 3.457-.63 4.706-1.739s1.952-2.613 1.957-4.181V16.91S.002 18.23.002 25.562zm6.662 1.55c-.345 0-.682-.091-.969-.261a1.617 1.617 0 0 1-.638-.686l-.004-.009a1.394 1.394 0 0 1-.097-.904l-.002.009a1.5 1.5 0 0 1 .477-.794 1.81 1.81 0 0 1 .882-.423l.011-.002a1.939 1.939 0 0 1 1.021.092l-.013-.004c.319.117.592.316.783.571s.294.555.294.861c.001.204-.043.407-.131.596a1.555 1.555 0 0 1-.376.503l-.002.001a1.77 1.77 0 0 1-.567.338 1.907 1.907 0 0 1-.668.119h-.001v-.006zm13.466-.854h-1.286v1.328h-.67v-3.251h2.117v.542h-1.447v.84h1.286v.54zm3.218-.223c0 .32-.056.6-.169.841s-.276.427-.488.558a1.32 1.32 0 0 1-.698.197h-.025.001c-.27 0-.51-.065-.722-.194a1.296 1.296 0 0 1-.487-.546l-.003-.008a1.882 1.882 0 0 1-.177-.804v-.028.001-.16c0-.32.058-.602.172-.844a1.285 1.285 0 0 1 1.212-.757c.271 0 .51.066.721.197.211.13.374.316.489.56.116.242.174.523.174.841v.145zm-.678-.148c0-.341-.061-.6-.183-.777a.596.596 0 0 0-.496-.266l-.028.001h.001l-.025-.001a.597.597 0 0 0-.494.262l-.001.002c-.122.174-.184.43-.185.768v.158c0 .331.061.589.183.772s.297.274.527.274l.026.001a.59.59 0 0 0 .49-.261l.001-.002c.12-.177.181-.434.183-.773v-.158zm2.85.846.001-.019a.34.34 0 0 0-.133-.27l-.001-.001c-.089-.069-.25-.14-.482-.214a3.473 3.473 0 0 1-.57-.232l.019.009c-.37-.2-.554-.469-.554-.806 0-.175.049-.332.147-.469a.975.975 0 0 1 .427-.324c.186-.077.395-.116.625-.116.232 0 .439.042.621.127a.97.97 0 0 1 .421.355.926.926 0 0 1 .152.522h-.67a.434.434 0 0 0-.14-.346c-.094-.084-.226-.125-.395-.125-.164 0-.291.035-.382.105a.325.325 0 0 0-.136.265v.008c0 .106.053.194.158.266.107.071.264.138.471.2.381.114.658.257.833.427s.261.381.261.634c0 .281-.107.503-.32.663s-.498.239-.859.239c-.25 0-.478-.046-.683-.137a1.11 1.11 0 0 1-.469-.373l-.002-.003a.962.962 0 0 1-.16-.533v-.022.001h.671c0 .358.214.538.643.538a.634.634 0 0 0 .373-.096.32.32 0 0 0 .134-.259v-.013.001zm3.574-1.855h-.995v2.708h-.67v-2.708h-.981v-.542h2.647v.542zm2.339 1.3h-1.285v.871h1.509v.538h-2.178v-3.251h2.174v.542h-1.505v.775h1.286v.524zm1.819.218h-.533v1.19h-.67v-3.251h1.208c.384 0 .68.086.888.257s.312.413.312.725a.996.996 0 0 1-.145.556.977.977 0 0 1-.429.35l-.006.002.702 1.328v.03h-.718l-.61-1.189zm-.533-.542h.541c.168 0 .297-.042.39-.126a.46.46 0 0 0 .139-.33l-.001-.026v.001c0-.154-.043-.274-.131-.362s-.219-.132-.4-.132h-.538v.975zm4.058.587v1.145h-.67v-3.251h1.268c.244 0 .459.045.643.134a.98.98 0 0 1 .429.382c.099.164.149.35.149.56 0 .318-.11.57-.328.754-.218.183-.519.275-.904.275h-.587zm0-.542h.598c.178 0 .312-.042.404-.125a.454.454 0 0 0 .141-.357l.001-.024a.534.534 0 0 0-.141-.363.527.527 0 0 0-.389-.152h-.614v1.021zm4.236.279h-1.285v.871h1.509v.538h-2.178v-3.251h2.174v.542h-1.505v.775h1.286v.524zm3.108-1.3h-.996v2.708h-.67v-2.708h-.982v-.542h2.648v.542zm2.339 1.3h-1.285v.871h1.509v.538h-2.179v-3.251h2.174v.542h-1.504v.775h1.285v.524zm1.819.218h-.533v1.19h-.67v-3.251h1.208c.384 0 .68.086.888.257s.312.413.312.725c0 .222-.049.408-.145.556a.982.982 0 0 1-.429.35l-.006.002.703 1.328v.03h-.718l-.61-1.189zm-.533-.542h.54c.168 0 .298-.042.39-.126a.46.46 0 0 0 .139-.331l-.001-.025v.001a.484.484 0 0 0-.132-.362c-.086-.088-.219-.132-.399-.132h-.538v.975zm3.935.88.001-.019a.34.34 0 0 0-.134-.271l-.001-.001c-.089-.069-.25-.14-.482-.214a3.473 3.473 0 0 1-.57-.232l.019.009c-.37-.2-.554-.469-.554-.806 0-.175.05-.332.147-.469a.975.975 0 0 1 .427-.324c.186-.077.395-.116.625-.116.232 0 .439.042.621.127a.97.97 0 0 1 .421.355.926.926 0 0 1 .152.522h-.67a.434.434 0 0 0-.14-.346c-.094-.084-.226-.125-.395-.125-.164 0-.291.035-.382.105a.326.326 0 0 0-.137.265v.007c0 .106.053.194.159.266s.264.138.471.2c.381.114.658.257.833.427s.261.381.261.634c0 .281-.107.503-.32.663s-.499.239-.859.239c-.25 0-.478-.046-.683-.137a1.11 1.11 0 0 1-.469-.373l-.002-.003a.962.962 0 0 1-.16-.533v-.022.001h.671c0 .358.214.538.643.538a.634.634 0 0 0 .373-.096.317.317 0 0 0 .134-.26v-.013.001z"/></symbol><symbol id="icon-brand" viewBox="0 0 43 32"><path d="M3.241 26.376a.96.96 0 0 1 .245.66.92.92 0 0 1-.088.463 1.115 1.115 0 0 1-.293.381 1.86 1.86 0 0 1-1.13.306H.001v-4.221h1.934a1.764 1.764 0 0 1 1.082.29l-.007-.004a.947.947 0 0 1 .374.79.899.899 0 0 1-.225.64c-.15.17-.354.286-.586.334.259.041.497.17.667.361zm-2.315-.64h.817a.84.84 0 0 0 .531-.136.41.41 0 0 0 .136-.191.427.427 0 0 0 .041-.225.474.474 0 0 0-.035-.228l.001.003a.532.532 0 0 0-.135-.183l-.001-.001a.848.848 0 0 0-.547-.143h.003H.92v1.103zm1.43 1.621a.545.545 0 0 0 .198-.429l.001-.026a.486.486 0 0 0-.05-.215l.001.003a.548.548 0 0 0-.155-.197l-.001-.001a.904.904 0 0 0-.503-.151l-.058.002h.003H.92V27.5h.885a.859.859 0 0 0 .545-.15zm4.841.83-1.069-1.648h-.409v1.648h-.933v-4.221h1.757a1.826 1.826 0 0 1 1.23.365l-.005-.003a1.264 1.264 0 0 1 .134 1.745l.002-.002a1.482 1.482 0 0 1-.844.429l1.144 1.689H7.196zm-1.478-2.226h.763c.524 0 .79-.204.79-.633l.001-.027a.576.576 0 0 0-.05-.235l.001.004a.645.645 0 0 0-.149-.218.867.867 0 0 0-.595-.17h.003-.776l.007 1.28zm6.543 1.375h-1.845l-.327.851h-.974l1.702-4.174h1.049l1.688 4.174h-.974l-.327-.851zm-.245-.64-.681-1.777-.674 1.777h1.355zm6.584 1.491h-.919l-2.063-2.866v2.86h-.912v-4.208h.919l2.063 2.88v-2.88h.919v4.214zm5.249-1.014c-.191.32-.477.579-.831.749a3.008 3.008 0 0 1-1.294.266h-1.634v-4.221h1.634c.449-.007.892.082 1.294.266.354.163.64.415.831.735.179.318.284.698.284 1.103s-.105.785-.29 1.114l.006-.012zm-1.048-.096c.259-.279.409-.64.409-1.008s-.15-.729-.409-1.008a1.684 1.684 0 0 0-1.163-.354h.005-.633v2.723h.64c.415.027.831-.102 1.151-.354zM12.841.524s11.867 4.099 11.615 10.043V20.61s-11.86-4.106-11.615-10.043V.524zM35.037 18.26a17.007 17.007 0 0 1 7.474-2.541l.069-.005v-3.146c-3.122 1.095-5.703 3.078-7.512 5.644l-.032.048z"/><path d="M33.688 19.2c1.949-3.435 5.056-6.021 8.781-7.253l.111-.032V2.839S25.668 8.701 26.028 17.157v14.298s.749-.259 1.94-.749c0-.463 0-.919.054-1.382a14.5 14.5 0 0 1 5.63-10.092l.035-.026z"/><path d="M32.082 24.517c.089-.987.286-1.974.592-2.928a13.174 13.174 0 0 0-3.581 8.626l-.001.021c.96-.429 2.077-.953 3.254-1.573a13.685 13.685 0 0 1-.266-4.146zm.667.055a13.279 13.279 0 0 0 .211 3.745c4.623-2.526 9.811-6.434 9.614-11.166v-.409a15.777 15.777 0 0 0-8.81 3.775l.02-.017a12.792 12.792 0 0 0-1.024 4.021l-.004.05z"/></symbol><symbol id="icon-company-t-l" viewBox="0 0 67 32"><path d="M33.724 15.223a2.084 2.084 0 0 1-.43-1.42v.006-2.051c0-.628.142-1.106.428-1.433.284-.327.774-.489 1.468-.488.652 0 1.116.139 1.389.417.299.355.444.789.411 1.226v.482h-1.166v-.489a2.465 2.465 0 0 0-.034-.477.464.464 0 0 0-.166-.283l-.001-.001a.672.672 0 0 0-.373-.112l-.052.002h.002a.712.712 0 0 0-.447.118l.003-.002a.546.546 0 0 0-.193.309l-.001.004c-.03.14-.047.302-.047.467v.042-.002 2.488c-.019.24.033.48.149.698a.55.55 0 0 0 .23.168l.004.001a.633.633 0 0 0 .305.039H35.2a.63.63 0 0 0 .414-.114l-.002.001a.503.503 0 0 0 .174-.299v-.003c.027-.165.04-.332.036-.498v-.505h1.167v.461a1.866 1.866 0 0 1-.406 1.293l.003-.004c-.268.304-.725.457-1.397.457s-1.179-.163-1.466-.501zm4.859.022c-.295-.32-.442-.784-.442-1.399v-2.157c0-.609.147-1.07.442-1.383s.787-.469 1.478-.467c.686 0 1.176.156 1.471.467.294.313.444.774.444 1.383v2.156c0 .609-.149 1.077-.449 1.398s-.787.481-1.466.481-1.181-.163-1.479-.479zm2.021-.518c.106-.199.154-.419.14-.638v-2.641a1.18 1.18 0 0 0-.14-.632l.003.006a.558.558 0 0 0-.234-.17l-.004-.001a.622.622 0 0 0-.312-.037h.003a.643.643 0 0 0-.313.038l.004-.002a.569.569 0 0 0-.239.171l-.001.001c-.107.195-.154.41-.14.626V14.1c-.014.22.033.439.14.639a.732.732 0 0 0 .246.158.832.832 0 0 0 .605-.002l-.006.002a.723.723 0 0 0 .246-.158v-.013zm2.777-4.825h1.256l.944 3.979.967-3.979h1.222l.124 5.743h-.904l-.097-3.991-.932 3.991h-.725l-.966-4.006-.09 4.006h-.913l.114-5.743zm5.92 0h1.957c1.127 0 1.691.543 1.691 1.631 0 1.041-.594 1.562-1.781 1.56h-.666v2.552h-1.208l.007-5.744zm1.672 2.454a.93.93 0 0 0 .665-.182.928.928 0 0 0 .174-.649l.001-.063c0-.163-.022-.321-.062-.471l.003.013a.43.43 0 0 0-.089-.158.502.502 0 0 0-.149-.114l-.003-.001a1.24 1.24 0 0 0-.476-.094l-.066.002h.003-.469v1.717h.469zm3.719-2.454h1.297l1.331 5.743h-1.126l-.263-1.324h-1.157l-.27 1.324h-1.143l1.331-5.743zm1.108 3.753-.452-2.411-.452 2.411h.903zm2.594-3.753h.846l1.618 3.276V9.902h1.003v5.743h-.804l-1.628-3.42v3.42h-1.036l.002-5.743zm5.815 3.552-1.345-3.545h1.133l.821 2.278.77-2.278h1.109l-1.329 3.546v2.19h-1.159v-2.19zM35.59 18.156v.3h-.986v2.334h-.413v-2.334H33.2v-.3h2.389zm3.089 2.634h-.328a.141.141 0 0 1-.081-.025.137.137 0 0 1-.052-.06v-.001l-.285-.626h-1.367l-.284.626a.168.168 0 0 1-.044.071.144.144 0 0 1-.082.025h-.326l1.208-2.634h.42l1.223 2.624zm-2-.978h1.14l-.484-1.072a1.765 1.765 0 0 1-.086-.235l-.003-.014-.045.14-.044.11-.478 1.07zm4.083.719c.076.004.151.004.228 0a1.41 1.41 0 0 0 .193-.031c.059-.012.117-.028.174-.048.053-.018.107-.042.161-.065v-.592h-.487a.095.095 0 0 1-.061-.022.06.06 0 0 1-.018-.021.048.048 0 0 1-.006-.024v-.205h.937v1.01a1.792 1.792 0 0 1-.496.211l-.013.003c-.1.026-.2.043-.302.055a3.774 3.774 0 0 1-.353.016h-.015c-.212 0-.416-.036-.606-.102l.013.004a1.499 1.499 0 0 1-.486-.277l.002.002a1.276 1.276 0 0 1-.308-.409l-.003-.008a1.3 1.3 0 0 1-.111-.529v-.019.001-.016c0-.193.04-.377.112-.543l-.003.009c.069-.156.176-.299.311-.417.138-.119.302-.211.484-.273.206-.068.427-.101.647-.098.112 0 .225.007.336.023a1.62 1.62 0 0 1 .529.172c.074.041.144.087.211.137l-.116.163a.101.101 0 0 1-.039.035h-.001a.112.112 0 0 1-.055.014.156.156 0 0 1-.075-.021h.001a1.595 1.595 0 0 1-.126-.066l.007.004a1.098 1.098 0 0 0-.154-.069l-.008-.002a1.522 1.522 0 0 0-.213-.057l-.009-.001a1.749 1.749 0 0 0-.29-.023h-.017.001-.015c-.162 0-.317.027-.462.076l.01-.003a1.022 1.022 0 0 0-.356.208.944.944 0 0 0-.222.321l-.002.006a1.234 1.234 0 0 0 .003.887l-.003-.008a.938.938 0 0 0 .242.332c.099.09.219.161.352.208.154.046.316.063.479.052zm3.85-.041h1.319v.3h-1.722v-2.634h.412l-.009 2.334zm2.691.3h-.412v-2.634h.412v2.634zm1.537-2.621a.2.2 0 0 1 .063.047l1.766 1.985-.002-.047.002-.049v.002-1.963h.36v2.645h-.222a.196.196 0 0 1-.077-.016h.001a.23.23 0 0 1-.065-.05l-1.764-1.984v2.048h-.346v-2.634h.215c.023 0 .047.004.068.012zm5.23-.013v.289h-1.463v.87h1.186v.279h-1.186v.9h1.463v.289h-1.889v-2.628h1.889zM10.782 1.889l18.343 4.496v15.757l-18.343-4.494V1.888zM9.605.545v17.868l20.693 5.075V5.622L9.605.546z"/><path d="M20.696 31.781 0 26.702V8.837l20.696 5.077v17.867z"/><path d="m9.948 1.686 18.103 4.44-7.698 6.649L2.246 8.333l7.702-6.647zM9.605.545 0 8.837l20.696 5.077 9.603-8.294L9.606.545zM21.86 30.776l8.439-7.288-8.439-2.069v9.358z"/></symbol>
<symbol id="close-black" viewBox="0 0 32 32">
<path d="M26.667 7.303l-1.97-1.97-7.808 7.808-7.808-7.808-1.97 1.97 7.808 7.808-7.808 7.808 1.97 1.97 7.808-7.808 7.808 7.808 1.97-1.97-7.808-7.808 7.808-7.808z"></path>
</symbol>
<symbol id="icon-send" viewBox="0 0 32 32">
<path d="M32 0l-32 18 10.227 3.788 15.773-14.788-11.998 16.186 0.010 0.004-0.012-0.004v8.814l5.735-6.691 7.265 2.691 5-28z"></path>
</symbol>
<symbol id="icon-modal-persone" viewBox="0 0 32 32">
<path d="M16 16c2.947 0 5.333-2.387 5.333-5.333s-2.387-5.333-5.333-5.333c-2.947 0-5.333 2.387-5.333 5.333s2.387 5.333 5.333 5.333zM16 18.667c-3.56 0-10.667 1.787-10.667 5.333v1.333c0 0.733 0.6 1.333 1.333 1.333h18.667c0.733 0 1.333-0.6 1.333-1.333v-1.333c0-3.547-7.107-5.333-10.667-5.333z"></path>
</symbol>
<symbol id="icon-modal-phone" viewBox="0 0 32 32">
<path d="M24.882 19.773l-3.268-0.373c-0.785-0.090-1.557 0.18-2.11 0.733l-2.367 2.367c-3.641-1.853-6.626-4.825-8.478-8.478l2.38-2.38c0.553-0.553 0.823-1.325 0.733-2.11l-0.373-3.242c-0.154-1.299-1.248-2.277-2.56-2.277h-2.226c-1.454 0-2.663 1.209-2.573 2.663 0.682 10.987 9.469 19.761 20.443 20.443 1.454 0.090 2.663-1.119 2.663-2.573v-2.226c0.013-1.3-0.965-2.393-2.264-2.547z"></path>
</symbol>
<symbol id="icon-modal-email" viewBox="0 0 32 32">
<path d="M26.667 5.333h-21.333c-1.467 0-2.653 1.2-2.653 2.667l-0.013 16c0 1.467 1.2 2.667 2.667 2.667h21.333c1.467 0 2.667-1.2 2.667-2.667v-16c0-1.467-1.2-2.667-2.667-2.667zM26.133 11l-9.427 5.893c-0.427 0.267-0.987 0.267-1.413 0l-9.427-5.893c-0.333-0.213-0.533-0.573-0.533-0.96 0-0.893 0.973-1.427 1.733-0.96l8.933 5.587 8.933-5.587c0.76-0.467 1.733 0.067 1.733 0.96 0 0.387-0.2 0.747-0.533 0.96z"></path>
</symbol>
<symbol id="icon-icon-check" viewBox="0 0 34 32">
<path d="M4.267 0h25.6c2.356 0 4.267 1.91 4.267 4.267v23.467c0 2.356-1.91 4.267-4.267 4.267h-25.6c-2.356 0-4.267-1.91-4.267-4.267v-23.467c0-2.356 1.91-4.267 4.267-4.267z"></path>
<path fill="#fff" style="fill: var(--color2, #fff); stroke: var(--color2, #fff)" stroke="#fff" stroke-linejoin="miter" stroke-linecap="butt" stroke-miterlimit="4" stroke-width="0.4267" d="M8.442 16.537l-0.147-0.14-2.205 2.088 7.767 7.41 16.318-15.567-2.19-2.089-14.128 13.465-5.416-5.167z"></path>
<symbol id="mobile-icon" viewBox="0 0 40 40"><path d="M8 14.67V12h24v2.67H8Zm0 6.66h24v-2.66H8v2.66ZM8 28h24v-2.67H8V28Z"/></symbol>
<symbol id="mobile-icon-close" viewBox="0 0 40 40"><path d="m29.7 12.9-2-1.9-7.4 7.5L13 11 11 12.9l7.5 7.4-7.5 7.5 1.9 1.9 7.4-7.5 7.5 7.5 1.9-2-7.5-7.4 7.5-7.4Z"/></symbol>
</symbol>
</defs>
</svg>